<svg xmlns="http://www.w3.org/2000/svg" width="2000" height="2000" aria-labelledby="t d" viewBox="0 0 2000 2000"><title id="t">VIZION app icon</title><desc id="d">Glossy near-black squircle with a laser-green glowing border, framing the VIZION bar, chevron and split-ring mark.</desc><defs><linearGradient id="b" x1="0" x2="0" y1="0" y2="1"><stop offset="0" stop-color="#3a3d45"/><stop offset=".1" stop-color="#2b2d33"/><stop offset=".2" stop-color="#1d1f25"/><stop offset=".4" stop-color="#16181d"/><stop offset="1" stop-color="#0e1013"/></linearGradient><linearGradient id="g" x1="0" x2="0" y1="0" y2="1"><stop offset="0" stop-color="#ceff7a"/><stop offset=".5" stop-color="#b7ff3c"/><stop offset="1" stop-color="#81cc00"/></linearGradient><radialGradient id="s" cx=".5" cy="-.1" r=".8"><stop offset="0" stop-color="#fff" stop-opacity=".3"/><stop offset=".6" stop-color="#fff" stop-opacity="0"/></radialGradient><filter id="f" width="200%" height="200%" x="-50%" y="-50%"><feGaussianBlur stdDeviation="12.7"/></filter><filter id="c" width="112%" height="112%" x="-6%" y="-6%"><feGaussianBlur stdDeviation="17"/></filter><clipPath id="a"><rect width="1952" height="1950" x="24" y="26" rx="440"/></clipPath></defs><g clip-path="url(#a)"><rect width="1952" height="1950" x="24" y="26" fill="url(#b)" rx="440"/><rect width="1952" height="1950" x="24" y="26" fill="none" stroke="#b7ff3c" stroke-width="34" filter="url(#c)" rx="440"/><rect width="1952" height="1950" x="24" y="26" fill="none" stroke="#b7ff3c" stroke-width="20" rx="440"/><rect width="1934" height="1932" x="33" y="35" fill="none" stroke="#daff99" stroke-width="3" opacity=".5" rx="431"/><rect width="1884" height="820" x="58" y="48" fill="url(#s)" rx="406"/><g fill="none" stroke="#b7ff3c" stroke-linecap="butt" stroke-linejoin="miter" filter="url(#f)"><path stroke-width="147.3" d="M1037.7 958.4A305.8 305.8 0 0 1 1643.4 958.4"/><path stroke-width="147.3" d="M1643.4 1043.6A305.8 305.8 0 0 1 1037.7 1043.6"/><path stroke-width="85.0" d="M603.4 801.4L828.5 1001.0L602.3 1200.6"/><rect width="162.8" height="866.5" x="280.0" y="567.7" fill="#b7ff3c" stroke="none" rx="36.8"/></g><rect width="162.8" height="866.5" x="280.0" y="567.7" fill="url(#g)" stroke="#3d580e" stroke-width="9.9" rx="36.8"/><g fill="none" stroke="url(#g)" stroke-linecap="butt" stroke-linejoin="miter"><path stroke-width="85.0" d="M603.4 801.4L828.5 1001.0L602.3 1200.6"/><path stroke-width="147.3" d="M1037.7 958.4A305.8 305.8 0 0 1 1643.4 958.4"/><path stroke-width="147.3" d="M1643.4 1043.6A305.8 305.8 0 0 1 1037.7 1043.6"/></g><rect width="31.2" height="781.6" x="311.2" y="610.2" fill="#c5f86d" opacity=".6" rx="15.6"/></g></svg>
