<svg xmlns="http://www.w3.org/2000/svg" width="2000" height="2000" aria-labelledby="t d" viewBox="0 0 2000 2000"><title>VIZION app icon</title><desc>Glossy black squircle with a lime-green glowing border framing a neon bar, chevron and split ring between two chrome parentheses.</desc><defs><linearGradient id="b" x1="0" x2="0" y1="0" y2="1"><stop offset="0" stop-color="#44454c"/><stop offset=".1" stop-color="#303138"/><stop offset=".2" stop-color="#1b1c21"/><stop offset=".4" stop-color="#0c0d10"/><stop offset="1" stop-color="#030305"/></linearGradient><linearGradient id="e" x1="0" x2="0" y1="472" y2="1554" gradientUnits="userSpaceOnUse"><stop offset="0" stop-color="#f2f1ed"/><stop offset=".2" stop-color="#c4c7cc"/><stop offset=".4" stop-color="#83868d"/><stop offset=".6" stop-color="#4d4f56"/><stop offset=".8" stop-color="#797c84"/><stop offset="1" stop-color="#b7bbc2"/></linearGradient><linearGradient id="g" x1="0" x2="0" y1="0" y2="1"><stop offset="0" stop-color="#eaf72b"/><stop offset=".5" stop-color="#aace04"/><stop offset="1" stop-color="#84ac00"/></linearGradient><filter id="f" width="160%" height="160%" x="-30%" y="-30%"><feGaussianBlur stdDeviation="9"/></filter><filter id="c" width="112%" height="112%" x="-6%" y="-6%"><feGaussianBlur stdDeviation="17"/></filter><filter id="h" width="220%" height="220%" x="-60%" y="-60%"><feGaussianBlur stdDeviation="5"/></filter><radialGradient id="d" cx=".5" cy="-.1" r=".8"><stop offset="0" stop-color="#fff" stop-opacity=".3"/><stop offset=".6" stop-color="#fff" stop-opacity="0"/></radialGradient><clipPath id="a"><rect width="1952" height="1950" x="24" y="26" rx="440"/></clipPath></defs><g clip-path="url(#a)"><rect width="1952" height="1950" x="24" y="26" fill="url(#b)" rx="440"/><rect width="1952" height="1950" x="24" y="26" fill="none" stroke="#aece05" stroke-width="34" filter="url(#c)" rx="440"/><rect width="1952" height="1950" x="24" y="26" fill="none" stroke="#aacc03" stroke-width="20" rx="440"/><rect width="1934" height="1932" x="33" y="35" fill="none" stroke="#e0f08a" stroke-width="3" opacity=".5" rx="431"/><rect width="1884" height="820" x="58" y="48" fill="url(#d)" rx="406"/><g fill="none" stroke="url(#e)" stroke-linecap="round" stroke-width="84"><path d="M451.5 527a718 718 0 0 0 0 972"/><path d="M1548.5 527a718 718 0 0 1 0 972"/></g><path fill="none" stroke="#f4f4f0" stroke-linecap="round" stroke-width="6" d="M338.9 612.4a756 756 0 0 0-13.6 778.6" opacity=".7"/><path fill="none" stroke="#f4f4f0" stroke-linecap="round" stroke-width="6" d="M1661.1 612.4a756 756 0 0 1 0 801.2" opacity=".7"/><path fill="none" stroke="#3c3d42" stroke-linecap="round" stroke-width="6" d="M414.6 631.6a682 682 0 0 0-13 742.8" opacity=".6"/><path fill="none" stroke="#3c3d42" stroke-linecap="round" stroke-width="6" d="M1585.4 631.6a682 682 0 0 1 0 762.8" opacity=".6"/><g fill="none" filter="url(#f)"><path stroke="#bde60c" stroke-width="104" d="M1066.1 989.9a216 216 0 0 1 427.8 0"/><path stroke="#bde60c" stroke-width="104" d="M1493.9 1050.1a216 216 0 0 1-427.8 0"/><path stroke="#bde60c" stroke-width="60" d="m759.4 880 159 141-159.8 141"/><rect width="115" height="612" x="531" y="705" fill="#bde60c" rx="26"/></g><rect width="115" height="612" x="531" y="705" fill="url(#g)" stroke="#46550f" stroke-width="7" rx="26"/><g fill="none" stroke="url(#g)"><path stroke-width="60" d="m759.4 880 159 141-159.8 141"/><path stroke-width="104" d="M1066.1 989.9a216 216 0 0 1 427.8 0"/><path stroke-width="104" d="M1493.9 1050.1a216 216 0 0 1-427.8 0"/></g><rect width="22" height="552" x="553" y="735" fill="#eef96e" opacity=".6" rx="11"/><g fill="#f4f7c0"><circle cx="348" cy="975" r="9"/><circle cx="348" cy="1013" r="9"/><circle cx="348" cy="1051" r="9"/><circle cx="1652" cy="975" r="9"/><circle cx="1652" cy="1013" r="9"/><circle cx="1652" cy="1051" r="9"/></g><g fill="#eaf7b4" filter="url(#h)" opacity=".8"><path d="m128 952 8 42 42 8-42 8-8 42-8-42-42-8 42-8Z"/><path d="m1872 952 8 42 42 8-42 8-8 42-8-42-42-8 42-8Z"/></g></g></svg>