<svg xmlns="http://www.w3.org/2000/svg" width="1872" height="1084" aria-labelledby="t d" viewBox="64 471 1872 1084"><title>VIZION glyph</title><desc>Two chrome parentheses framing a neon bar, chevron and split ring, with dot accents and lens flares, on a transparent background.</desc><defs><linearGradient id="a" x1="0" x2="0" y1="472" y2="1554" gradientUnits="userSpaceOnUse"><stop offset="0" stop-color="#f2f1ed"/><stop offset=".2" stop-color="#c4c7cc"/><stop offset=".4" stop-color="#83868d"/><stop offset=".6" stop-color="#4d4f56"/><stop offset=".8" stop-color="#797c84"/><stop offset="1" stop-color="#b7bbc2"/></linearGradient><linearGradient id="c" x1="0" x2="0" y1="0" y2="1"><stop offset="0" stop-color="#eaf72b"/><stop offset=".5" stop-color="#aace04"/><stop offset="1" stop-color="#84ac00"/></linearGradient><filter id="b" width="160%" height="160%" x="-30%" y="-30%"><feGaussianBlur stdDeviation="9"/></filter><filter id="d" width="700%" height="700%" x="-300%" y="-300%"><feGaussianBlur stdDeviation="5"/></filter></defs><g fill="none" stroke="url(#a)" stroke-linecap="round" stroke-width="84"><path d="M451.5 527a718 718 0 0 0 0 972"/><path d="M1548.5 527a718 718 0 0 1 0 972"/></g><path fill="none" stroke="#f4f4f0" stroke-linecap="round" stroke-width="6" d="M338.9 612.4a756 756 0 0 0-13.6 778.6" opacity=".7"/><path fill="none" stroke="#f4f4f0" stroke-linecap="round" stroke-width="6" d="M1661.1 612.4a756 756 0 0 1 0 801.2" opacity=".7"/><path fill="none" stroke="#3c3d42" stroke-linecap="round" stroke-width="6" d="M414.6 631.6a682 682 0 0 0-13 742.8" opacity=".6"/><path fill="none" stroke="#3c3d42" stroke-linecap="round" stroke-width="6" d="M1585.4 631.6a682 682 0 0 1 0 762.8" opacity=".6"/><g fill="none" filter="url(#b)"><path stroke="#bde60c" stroke-width="104" d="M1066.1 989.9a216 216 0 0 1 427.8 0"/><path stroke="#bde60c" stroke-width="104" d="M1493.9 1050.1a216 216 0 0 1-427.8 0"/><path stroke="#bde60c" stroke-width="60" d="m759.4 880 159 141-159.8 141"/><rect width="115" height="612" x="531" y="705" fill="#bde60c" rx="26"/></g><rect width="115" height="612" x="531" y="705" fill="url(#c)" stroke="#46550f" stroke-width="7" rx="26"/><g fill="none" stroke="url(#c)"><path stroke-width="60" d="m759.4 880 159 141-159.8 141"/><path stroke-width="104" d="M1066.1 989.9a216 216 0 0 1 427.8 0"/><path stroke-width="104" d="M1493.9 1050.1a216 216 0 0 1-427.8 0"/></g><rect width="22" height="552" x="553" y="735" fill="#eef96e" opacity=".6" rx="11"/><g fill="#f4f7c0"><circle cx="348" cy="975" r="9"/><circle cx="348" cy="1013" r="9"/><circle cx="348" cy="1051" r="9"/><circle cx="1652" cy="975" r="9"/><circle cx="1652" cy="1013" r="9"/><circle cx="1652" cy="1051" r="9"/></g><g fill="#eaf7b4" filter="url(#d)" opacity=".8"><path d="m128 952 8 42 42 8-42 8-8 42-8-42-42-8 42-8Z"/><path d="m1872 952 8 42 42 8-42 8-8 42-8-42-42-8 42-8Z"/></g></svg>