<svg xmlns="http://www.w3.org/2000/svg" width="1024" height="1024" viewBox="0 0 1024 1024"><defs><linearGradient id="g" x1="0" x2="0" y1="0" y2="1"><stop offset="0" stop-color="#ebffbe"/><stop offset=".13" stop-color="#ccff6a"/><stop offset=".45" stop-color="#b7ff3c"/><stop offset=".85" stop-color="#b7ff3c"/><stop offset="1" stop-color="#97e82e"/></linearGradient><linearGradient id="e" x1="0" x2="0" y1="240" y2="784" gradientUnits="userSpaceOnUse"><stop offset="0" stop-color="#34373e"/><stop offset=".5" stop-color="#7e828a"/><stop offset="1" stop-color="#34373e"/></linearGradient><linearGradient id="c" x1="0" x2="0" y1="0" y2="1"><stop offset="0" stop-color="#fff" stop-opacity=".12"/><stop offset=".16" stop-color="#fff" stop-opacity="0"/></linearGradient><linearGradient id="b" x1="0" x2=".2" y1="0" y2="1"><stop offset="0" stop-color="#1c2027"/><stop offset=".3" stop-color="#0c0e12"/><stop offset="1" stop-color="#060708"/></linearGradient><filter id="i" width="280%" height="280%" x="-90%" y="-90%"><feGaussianBlur stdDeviation="11"/></filter><filter id="h" width="340%" height="340%" x="-120%" y="-120%"><feGaussianBlur stdDeviation="26"/></filter><filter id="a" width="160%" height="160%" x="-30%" y="-30%"><feGaussianBlur stdDeviation="14"/></filter><radialGradient id="d" cx=".5" cy=".5" r=".5"><stop offset="0" stop-color="#fbffcf"/><stop offset=".4" stop-color="#b7ff3c"/><stop offset="1" stop-color="#b7ff3c" stop-opacity="0"/></radialGradient></defs><rect width="988" height="988" x="18" y="18" fill="none" stroke="#8df02c" stroke-width="16" filter="url(#a)" opacity=".85" rx="216"/><rect width="980" height="980" x="22" y="22" fill="url(#b)" rx="212"/><rect width="976" height="976" x="24" y="24" fill="none" stroke="#c6ff6e" stroke-width="4" opacity=".85" rx="210"/><rect width="980" height="980" x="22" y="22" fill="url(#c)" rx="212"/><ellipse cx="150" cy="512" fill="url(#d)" opacity=".85" rx="116" ry="3.5"/><path fill="#fbffcf" d="m150 478 4.5 34-4.5 34-4.5-34Z"/><path fill="#fbffcf" d="m110 512 40-4 40 4-40 4Z"/><circle cx="150" cy="512" r="7.5" fill="#fbffcf"/><ellipse cx="874" cy="512" fill="url(#d)" opacity=".85" rx="116" ry="3.5"/><path fill="#fbffcf" d="m874 478 4.5 34-4.5 34-4.5-34Z"/><path fill="#fbffcf" d="m834 512 40-4 40 4-40 4Z"/><circle cx="874" cy="512" r="7.5" fill="#fbffcf"/><g id="f" fill="none" stroke-linecap="round"><path stroke="#08090b" stroke-width="66" d="M290 250a330 330 0 0 0 0 524"/><path stroke="url(#e)" stroke-width="56" d="M290 250a330 330 0 0 0 0 524"/><path stroke="#c6cad1" stroke-width="22" d="M290 250a330 330 0 0 0 0 524" opacity=".85"/><path stroke="#eff1f4" stroke-width="8" d="M290 250a330 330 0 0 0 0 524" opacity=".7"/></g><use href="#f"/><use href="#f" transform="matrix(-1 0 0 1 1024 0)"/><circle cx="214" cy="474" r="8" fill="url(#g)"/><circle cx="214" cy="512" r="8" fill="url(#g)"/><circle cx="214" cy="550" r="8" fill="url(#g)"/><circle cx="810" cy="474" r="8" fill="url(#g)"/><circle cx="810" cy="512" r="8" fill="url(#g)"/><circle cx="810" cy="550" r="8" fill="url(#g)"/><g filter="url(#h)" opacity=".45"><rect width="70" height="304" x="246" y="360" fill="#9cff2e" rx="18"/><path fill="none" stroke="#9cff2e" stroke-miterlimit="7" stroke-width="40" d="m388 442 62 70-62 70"/><path fill="none" stroke="#9cff2e" stroke-width="40" d="M754.9 506.6a104 104 0 0 0-207.8 0m0 10.8a104 104 0 0 0 207.8 0"/></g><g filter="url(#i)" opacity=".7"><rect width="70" height="304" x="246" y="360" fill="#9cff2e" rx="18"/><path fill="none" stroke="#9cff2e" stroke-miterlimit="7" stroke-width="40" d="m388 442 62 70-62 70"/><path fill="none" stroke="#9cff2e" stroke-width="40" d="M754.9 506.6a104 104 0 0 0-207.8 0m0 10.8a104 104 0 0 0 207.8 0"/></g><rect width="80" height="314" x="241" y="355" fill="#0a0b0d" rx="23"/><rect width="70" height="304" x="246" y="360" fill="url(#g)" rx="18"/><rect width="68" height="302" x="247" y="361" fill="none" stroke="#e8ffb0" stroke-width="3" opacity=".55" rx="17"/><rect width="15" height="150" x="257" y="374" fill="#fbffd8" opacity=".5" rx="7"/><path fill="none" stroke="#0a0b0d" stroke-miterlimit="7" stroke-width="52" d="m388 442 62 70-62 70"/><path fill="none" stroke="url(#g)" stroke-miterlimit="7" stroke-width="40" d="m388 442 62 70-62 70"/><path fill="none" stroke="#e8ffb0" stroke-linecap="round" stroke-width="6" d="m392 452 48 56" opacity=".5"/><path fill="none" stroke="#0a0b0d" stroke-width="52" d="M754.9 506.6a104 104 0 0 0-207.8 0m0 10.8a104 104 0 0 0 207.8 0"/><path fill="none" stroke="url(#g)" stroke-width="40" d="M754.9 506.6a104 104 0 0 0-207.8 0"/><path fill="none" stroke="url(#g)" stroke-width="40" d="M547.1 517.4a104 104 0 0 0 207.8 0"/><path fill="none" stroke="#e8ffb0" stroke-linecap="round" stroke-width="9" d="M728.3 442.4a104 104 0 0 0-154.6 0" opacity=".5"/></svg>