<svg xmlns="http://www.w3.org/2000/svg" width="1024" height="1024" viewBox="0 0 1024 1024"><defs><linearGradient id="d" x1="0" x2="0" y1="0" y2="1"><stop offset="0" stop-color="#ebffbe"/><stop offset=".13" stop-color="#ccff6a"/><stop offset=".45" stop-color="#b7ff3c"/><stop offset=".85" stop-color="#b7ff3c"/><stop offset="1" stop-color="#97e82e"/></linearGradient><linearGradient id="b" x1="0" x2="0" y1="240" y2="784" gradientUnits="userSpaceOnUse"><stop offset="0" stop-color="#34373e"/><stop offset=".5" stop-color="#7e828a"/><stop offset="1" stop-color="#34373e"/></linearGradient><filter id="f" width="280%" height="280%" x="-90%" y="-90%"><feGaussianBlur stdDeviation="11"/></filter><filter id="e" width="340%" height="340%" x="-120%" y="-120%"><feGaussianBlur stdDeviation="26"/></filter><radialGradient id="a" cx=".5" cy=".5" r=".5"><stop offset="0" stop-color="#fbffcf"/><stop offset=".4" stop-color="#b7ff3c"/><stop offset="1" stop-color="#b7ff3c" stop-opacity="0"/></radialGradient></defs><ellipse cx="150" cy="512" fill="url(#a)" opacity=".85" rx="116" ry="3.5"/><path fill="#fbffcf" d="m150 478 4.5 34-4.5 34-4.5-34Z"/><path fill="#fbffcf" d="m110 512 40-4 40 4-40 4Z"/><circle cx="150" cy="512" r="7.5" fill="#fbffcf"/><ellipse cx="874" cy="512" fill="url(#a)" opacity=".85" rx="116" ry="3.5"/><path fill="#fbffcf" d="m874 478 4.5 34-4.5 34-4.5-34Z"/><path fill="#fbffcf" d="m834 512 40-4 40 4-40 4Z"/><circle cx="874" cy="512" r="7.5" fill="#fbffcf"/><g id="c" fill="none" stroke-linecap="round"><path stroke="#08090b" stroke-width="66" d="M290 250a330 330 0 0 0 0 524"/><path stroke="url(#b)" stroke-width="56" d="M290 250a330 330 0 0 0 0 524"/><path stroke="#c6cad1" stroke-width="22" d="M290 250a330 330 0 0 0 0 524" opacity=".85"/><path stroke="#eff1f4" stroke-width="8" d="M290 250a330 330 0 0 0 0 524" opacity=".7"/></g><use href="#c"/><use href="#c" transform="matrix(-1 0 0 1 1024 0)"/><circle cx="214" cy="474" r="8" fill="url(#d)"/><circle cx="214" cy="512" r="8" fill="url(#d)"/><circle cx="214" cy="550" r="8" fill="url(#d)"/><circle cx="810" cy="474" r="8" fill="url(#d)"/><circle cx="810" cy="512" r="8" fill="url(#d)"/><circle cx="810" cy="550" r="8" fill="url(#d)"/><g filter="url(#e)" opacity=".45"><rect width="70" height="304" x="246" y="360" fill="#9cff2e" rx="18"/><path fill="none" stroke="#9cff2e" stroke-miterlimit="7" stroke-width="40" d="m388 442 62 70-62 70"/><path fill="none" stroke="#9cff2e" stroke-width="40" d="M754.9 506.6a104 104 0 0 0-207.8 0m0 10.8a104 104 0 0 0 207.8 0"/></g><g filter="url(#f)" opacity=".7"><rect width="70" height="304" x="246" y="360" fill="#9cff2e" rx="18"/><path fill="none" stroke="#9cff2e" stroke-miterlimit="7" stroke-width="40" d="m388 442 62 70-62 70"/><path fill="none" stroke="#9cff2e" stroke-width="40" d="M754.9 506.6a104 104 0 0 0-207.8 0m0 10.8a104 104 0 0 0 207.8 0"/></g><rect width="80" height="314" x="241" y="355" fill="#0a0b0d" rx="23"/><rect width="70" height="304" x="246" y="360" fill="url(#d)" rx="18"/><rect width="68" height="302" x="247" y="361" fill="none" stroke="#e8ffb0" stroke-width="3" opacity=".55" rx="17"/><rect width="15" height="150" x="257" y="374" fill="#fbffd8" opacity=".5" rx="7"/><path fill="none" stroke="#0a0b0d" stroke-miterlimit="7" stroke-width="52" d="m388 442 62 70-62 70"/><path fill="none" stroke="url(#d)" stroke-miterlimit="7" stroke-width="40" d="m388 442 62 70-62 70"/><path fill="none" stroke="#e8ffb0" stroke-linecap="round" stroke-width="6" d="m392 452 48 56" opacity=".5"/><path fill="none" stroke="#0a0b0d" stroke-width="52" d="M754.9 506.6a104 104 0 0 0-207.8 0m0 10.8a104 104 0 0 0 207.8 0"/><path fill="none" stroke="url(#d)" stroke-width="40" d="M754.9 506.6a104 104 0 0 0-207.8 0"/><path fill="none" stroke="url(#d)" stroke-width="40" d="M547.1 517.4a104 104 0 0 0 207.8 0"/><path fill="none" stroke="#e8ffb0" stroke-linecap="round" stroke-width="9" d="M728.3 442.4a104 104 0 0 0-154.6 0" opacity=".5"/></svg>